# xmcd CD database file
# Copyright (C) 1997 Ti Kan
# 
# Track frame offsets:
#     150
#     14985
#     30934
#     42393
#     54164
#     66848
#     79053
#     94778
#     106248
#     128573
#     150927
#     162839
# 
# Disc length: 2412 seconds
# 
# Revision: 1
# Processed by: cddbd v1.4b41PL1 Copyright (c) Steve Scherf et al.
# Submitted via: DiscPlay 4.0.4
# 
DISCID=88096a0c
DTITLE=Various Artist - Blues Legends - Disc 1
DYEAR=1900
DGENRE=
TTITLE0=BB King:  Everyday I Have The Blues
TTITLE1=Jimmy Reed: Big Boss Man
TTITLE2=Sonny Terry: Chain Gang Blues
TTITLE3=Lightning Slim: Voodoo Blues
TTITLE4=John Lee Hooker: Boom Boom
TTITLE5=Mississippi Fred: Big Fat Mamma
TTITLE6=Ray Charles: Ray Charles Blues
TTITLE7=Menphis Slim: Mother Earth
TTITLE8=Piano Reed: Bright Lights, Big City
TTITLE9=Bukka White: Drunk Man Blues
TTITLE10=Jimmy Reed: Bright Lights, Big City
TTITLE11=Leadbelly: Boll Weevil Blues
EXTD=
EXTT0=
EXTT1=
EXTT2=
EXTT3=
EXTT4=
EXTT5=
EXTT6=
EXTT7=
EXTT8=
EXTT9=
EXTT10=
EXTT11=
PLAYORDER=
